<svg width="1919" height="963" viewBox="0 0 1919 963" fill="none" xmlns="http://www.w3.org/2000/svg">
<path fill-rule="evenodd" clip-rule="evenodd" d="M1680.71 776.847C1692.54 776.84 1703.87 772.169 1712.23 763.86L1866.72 610.325C1883.3 593.863 1896.44 574.318 1905.41 552.805C1914.38 531.292 1919 508.233 1919 484.946C1919 461.659 1914.38 438.6 1905.41 417.087C1896.44 395.574 1883.3 376.028 1866.72 359.567L1517.99 13.0143C1513.86 8.88657 1508.95 5.61171 1503.54 3.37818C1498.13 1.14465 1492.33 -0.00344037 1486.47 7.74391e-06H778.021C771.861 7.74391e-06 766.833 20.0156 771.142 24.3537L857.779 110.484C885.902 138.379 866.066 186.153 826.257 186.153H238.312C232.454 186.147 226.653 187.288 221.239 189.511C215.826 191.735 210.906 194.998 206.763 199.113L52.2761 352.703C35.7033 369.162 22.5564 388.705 13.5866 410.216C4.61681 431.727 0 454.783 0 478.068C0 501.353 4.61681 524.409 13.5866 545.92C22.5564 567.431 35.7033 586.974 52.2761 603.433L401.004 949.986C405.139 954.109 410.051 957.38 415.46 959.613C420.869 961.847 426.668 962.997 432.526 963H1140.98C1147.14 963 1152.25 942.929 1147.86 938.646L1061.22 852.516C1033.12 824.538 1052.93 776.819 1092.74 776.819L1680.71 776.847ZM994.557 723.554C986.191 731.862 974.848 736.529 963.021 736.529C951.195 736.529 939.852 731.862 931.486 723.554L747.466 540.888C730.746 524.254 721.355 501.704 721.355 478.192C721.355 454.679 730.746 432.129 747.466 415.495L924.496 239.583C928.636 235.459 933.553 232.187 938.967 229.954C944.381 227.721 950.184 226.572 956.046 226.572C961.907 226.572 967.711 227.721 973.124 229.954C978.538 232.187 983.456 235.459 987.595 239.583L1171.5 422.359C1188.23 438.99 1197.63 461.541 1197.63 485.056C1197.63 508.57 1188.23 531.122 1171.5 547.752L994.557 723.554Z" fill="white"/>
</svg>
