<svg xmlns="http://www.w3.org/2000/svg" viewBox="0 0 694.62 350.75">
  <defs>
    <style>
      .cls-1 {
        fill: #ed6e5f;
        fill-rule: evenodd;
      }
    </style>
  </defs>
  <g id="Layer_2" data-name="Layer 2">
    <g id="Layer_1-2" data-name="Layer 1">
      <path class="cls-1" d="M608.37,282.94a16.15,16.15,0,0,0,11.41-4.73l55.92-55.92a64.56,64.56,0,0,0,0-91.33L549.47,4.74A16.08,16.08,0,0,0,538.06,0H281.62c-2.23,0-4.05,7.29-2.49,8.87l31.36,31.37c10.18,10.16,3,27.56-11.41,27.56H86.26a16.13,16.13,0,0,0-11.42,4.72L18.92,128.46a64.55,64.55,0,0,0,0,91.32L145.15,346a16.12,16.12,0,0,0,11.41,4.74H413c2.23,0,4.08-7.31,2.49-8.87l-31.36-31.37c-10.17-10.19-3-27.57,11.41-27.57ZM360,263.53a16.15,16.15,0,0,1-22.83,0L270.56,197a32.31,32.31,0,0,1,0-45.67l64.08-64.07a16.13,16.13,0,0,1,22.84,0l66.57,66.57a32.3,32.3,0,0,1,0,45.67Z"/>
    </g>
  </g>
</svg>
