<svg width="1943" height="975" viewBox="0 0 1943 975" fill="none" xmlns="http://www.w3.org/2000/svg">
<path fill-rule="evenodd" clip-rule="evenodd" d="M1701.73 786.527C1713.7 786.52 1725.18 781.791 1733.65 773.378L1890.07 617.93C1906.85 601.263 1920.16 581.474 1929.24 559.693C1938.33 537.912 1943 514.566 1943 490.989C1943 467.411 1938.33 444.065 1929.24 422.284C1920.16 400.503 1906.85 380.714 1890.07 364.047L1536.98 13.1764C1532.8 8.99731 1527.82 5.68163 1522.34 3.42027C1516.87 1.15891 1510.99 -0.00348324 1505.06 7.84041e-06H787.752C781.514 7.84041e-06 776.423 20.265 780.787 24.6572L868.506 111.861C896.982 140.104 876.898 188.473 836.59 188.473H241.293C235.362 188.466 229.487 189.621 224.006 191.873C218.525 194.124 213.544 197.428 209.349 201.594L52.9299 357.098C36.1498 373.762 22.8385 393.549 13.7565 415.328C4.67455 437.106 0 460.45 0 484.025C0 507.6 4.67455 530.944 13.7565 552.723C22.8385 574.502 36.1498 594.288 52.9299 610.953L406.019 961.824C410.206 965.998 415.18 969.31 420.656 971.571C426.133 973.832 432.005 974.997 437.935 975H1155.25C1161.48 975 1166.66 954.679 1162.21 950.343L1074.49 863.139C1046.04 834.813 1066.1 786.499 1106.41 786.499L1701.73 786.527ZM1007 732.57C998.524 740.982 987.04 745.706 975.065 745.706C963.091 745.706 951.606 740.982 943.135 732.57L756.815 547.628C739.885 530.787 730.376 507.955 730.376 484.15C730.376 460.345 739.885 437.514 756.815 420.673L936.059 242.569C940.25 238.393 945.229 235.08 950.71 232.82C956.191 230.559 962.068 229.396 968.002 229.396C973.937 229.396 979.813 230.559 985.295 232.82C990.776 235.08 995.755 238.393 999.946 242.569L1186.16 427.622C1203.09 444.46 1212.61 467.293 1212.61 491.1C1212.61 514.907 1203.09 537.74 1186.16 554.577L1007 732.57Z" fill="#ED6E5F"/>
</svg>
